<?xml version="1.0" encoding="utf-8"?>
<!-- Generator: Adobe Illustrator 28.0.0, SVG Export Plug-In . SVG Version: 6.00 Build 0)  -->
<svg version="1.1" id="Capa_1" xmlns="http://www.w3.org/2000/svg" xmlns:xlink="http://www.w3.org/1999/xlink" x="0px" y="0px"
	 viewBox="0 0 330.4 197.5" style="enable-background:new 0 0 330.4 197.5;" xml:space="preserve">
<style type="text/css">
	.st0{fill:#2B4B9B;}
	.st1{fill:#E5201E;}
	.st2{enable-background:new    ;}
	.st3{fill:none;stroke:#2B4B9B;stroke-width:3.497;stroke-miterlimit:10;}
</style>
<g>
	<path class="st0" d="M330.4,127.5L162.6,18.7C141.8,6.3,122.1,0,100.6,0C61.2,0,25.6,16.2,0,42.3h52.2C66.6,22.5,90,9.6,116.4,9.6
		c43.9,0,79.4,35.6,79.4,79.4c0,13.8-3.5,26.8-9.7,38.1l0.6,0.4H330.4z"/>
	<path class="st1" d="M56,42.3c-6.6,8.6-11.4,18.6-13.9,29.6h148.4c-2.4-10.9-7.3-21-13.9-29.6C176.6,42.3,56,42.3,56,42.3z"/>
	<path class="st1" d="M51.1,127.5h130.6c5.3-8.9,8.9-18.9,10.2-29.6h-151C42.2,108.7,45.8,118.7,51.1,127.5"/>
</g>
<g class="st2">
	<path class="st0" d="M70.8,185.7l7.7-40h7.5l-7.6,40H70.8z"/>
</g>
<g class="st2">
	<path class="st0" d="M116.5,185.7h-7l-9.9-26.9l-5.1,26.9h-7l7.6-40h7l9.9,26.8l5.1-26.8h7L116.5,185.7z"/>
	<path class="st0" d="M127.3,172.7l7.2-0.4c0.1,2.5,0.5,4.2,1.2,5.1c1.1,1.4,3.1,2.1,6.1,2.1c2.5,0,4.2-0.5,5.3-1.4
		c1.1-1,1.6-2.1,1.6-3.5c0-1.2-0.4-2.2-1.3-3c-0.6-0.6-2.4-1.6-5.2-2.9s-4.9-2.5-6.2-3.4s-2.3-2.1-3.1-3.5c-0.7-1.4-1.1-3.1-1.1-5.1
		c0-3.4,1.1-6.2,3.3-8.4c2.2-2.2,5.5-3.3,9.7-3.3c4.3,0,7.6,1.1,10,3.3c2.4,2.2,3.6,5.1,3.9,8.8l-7.2,0.4c-0.2-1.9-0.8-3.4-1.9-4.4
		c-1.1-1-2.7-1.5-4.8-1.5c-2.1,0-3.6,0.4-4.5,1.2c-0.9,0.8-1.3,1.8-1.3,3c0,1.1,0.4,2.1,1.2,2.8c0.8,0.8,2.6,1.8,5.4,3.1
		c4.2,2,6.9,3.6,8,4.8c1.7,1.8,2.6,4.2,2.6,7c0,3.5-1.3,6.6-3.8,9.1c-2.6,2.5-6.1,3.8-10.7,3.8c-3.1,0-5.9-0.6-8.2-1.7
		c-2.3-1.2-3.9-2.8-4.9-4.8C127.7,177.7,127.2,175.4,127.3,172.7z"/>
	<path class="st0" d="M183.3,185.7h-7.1l-1.3-33.5l-5.8,33.5h-6.8l7.6-40h10.7l1.1,28.1l12.5-28.1H205l-7.7,40h-6.9l7.2-33.2
		L183.3,185.7z"/>
	<path class="st0" d="M206.8,185.7l7.6-40h27.1l-1.3,6.7h-19.6l-1.7,9.1h18.9l-1.3,6.7h-18.9l-2.3,10.9h21.3l-1.3,6.7H206.8z"/>
</g>
<g class="st2">
	<path class="st0" d="M258.9,185.7h-7.5l6.4-33.4H247l1.3-6.7h28.8l-1.3,6.7h-10.6L258.9,185.7z"/>
</g>
<g>
	<line class="st3" x1="69" y1="137" x2="282.7" y2="137"/>
</g>
</svg>
